<svg xmlns="http://www.w3.org/2000/svg" viewBox="0 0 32 32" enable-background="new 0 0 32 32"><style type="text/css">.st0{fill:none;} .st1{fill:#333333;}</style><title>warning</title><desc>Created with Sketch.</desc><g id="ui_x2F_icon_x2F_warning"><path id="Rectangle-4" class="st0" d="M-.1 0h32v32h-32v-32z"/><path id="path-1_1_" class="st1" d="M16.1 10.2c.7 0 1.2.5 1.2 1.2v6.1c0 .7-.5 1.2-1.2 1.2s-1.2-.5-1.2-1.2v-6.1c0-.7.5-1.2 1.2-1.2zm.1-5.8l-11.7 23.3h23.3l-11.6-23.3zm13.7 22.3c.6 1.1.1 2.5-1 3.1-.3.2-.7.2-1 .2h-23.4c-1.3 0-2.3-1-2.3-2.3 0-.4.1-.7.2-1l11.7-23.4c.6-1.1 1.9-1.6 3.1-1 .4.2.8.6 1 1l11.7 23.4zm-13.8-2.4c.7 0 1.2-.5 1.2-1.2s-.5-1.2-1.2-1.2-1.2.5-1.2 1.2.5 1.2 1.2 1.2z"/></g></svg>