<svg xmlns="http://www.w3.org/2000/svg" viewBox="0 0 146.3 149.8" enable-background="new 0 0 146.3 149.8"><style type="text/css">.st0{fill:#D4D4D4;} .st1{fill:#5C9EAF;}</style><path class="st0" d="M73.4 146.4c-38.8 0-70.4-31.6-70.4-70.4s31.5-70.4 70.4-70.4 70.4 31.6 70.4 70.4c0 16.9-6.1 33.3-17.2 46.1l10.6 22.1-25-9.4c-11.5 7.6-25 11.6-38.8 11.6zm0-138.8c-37.8 0-68.5 30.7-68.5 68.4s30.7 68.4 68.4 68.4c13.7 0 26.9-4 38.1-11.6l.4-.3 21.3 8-9-18.8.4-.5c11-12.5 17.1-28.6 17.1-45.2.2-37.7-30.5-68.4-68.2-68.4z"/><path class="st1" d="M63.8 58.4h42.6l1.6-17.4h-48.2c-15.4.8-24.2 12.7-26.4 35.5s3.8 34.7 18.1 35.5h49.5l1.9-18.3-45.2-.1c-3-.8-4.6-2.6-5-5.4-.7-8.8.7-17.6 4.1-26.5 1.4-2.2 3.8-3.3 7-3.3z"/></svg>