<svg xmlns="http://www.w3.org/2000/svg"  viewBox="0 0 13 9">
  <g fill="none" fill-rule="evenodd" transform="translate(1 1)">
    <path fill="#333" stroke="#333" d="M0.776035834,7 C0.349216125,7 0,6.73 0,6.4 L0,0.6 C0,0.27 0.349216125,0 0.776035834,0 L10.2239642,0 C10.6507839,0 11,0.27 11,0.6 L11,6.4 C11,6.73 10.6507839,7 10.2239642,7 L0.776035834,7 Z"/>
    <circle cx="4.3" cy="3.5" r="2" fill="#FFF" stroke="#FFF"/>
    <circle cx="6.8" cy="3.5" r="2" fill="#FFF" stroke="#FFF"/>
    <g stroke="#333" transform="translate(4 1)">
      <path d="M1.54999995,0.938657262 C2.00723119,1.30518752 2.29999995,1.86840386 2.29999995,2.5 C2.29999995,3.13159614 2.00723119,3.69481248 1.54999995,4.06134274 C1.09276871,3.69481248 0.799999952,3.13159614 0.799999952,2.5 C0.799999952,1.86840386 1.09276871,1.30518752 1.54999995,0.938657262 Z"/>
    </g>
  </g>
</svg>
