<svg xmlns="http://www.w3.org/2000/svg"  viewBox="0 0 13 9">
  <g fill="none" fill-rule="evenodd" transform="translate(1 1)">
    <path fill="#333" stroke="#333" d="M0.776035834,7 C0.349216125,7 0,6.73 0,6.4 L0,0.6 C0,0.27 0.349216125,0 0.776035834,0 L10.2239642,0 C10.6507839,0 11,0.27 11,0.6 L11,6.4 C11,6.73 10.6507839,7 10.2239642,7 L0.776035834,7 Z"/>
    <path fill="#FFF" d="M8.50166513,3.21508808 C8.50166513,3.427327 8.49409518,3.62891192 8.47979639,3.81844099 C8.4654976,4.00797006 8.42680675,4.19749914 8.36372385,4.38702821 C8.28886547,4.65169603 8.17643772,4.90122395 8.02756208,5.13673345 C7.87812569,5.37280368 7.69111993,5.58111744 7.46682517,5.76195509 C7.24281078,5.94307311 6.97561965,6.08550029 6.66553214,6.18867588 C6.35544463,6.2924122 5.99881596,6.344 5.59648723,6.344 C5.22303646,6.344 4.89248205,6.30110363 4.60538476,6.21446978 C4.3180071,6.12811629 4.06819881,6.01316523 3.85539915,5.86989695 C3.64231913,5.7263483 3.46316369,5.55700576 3.31653099,5.36074784 C3.17017866,5.16617214 3.0507417,4.96066206 2.95906121,4.74477835 C2.86738073,4.52945538 2.80093341,4.31076799 2.76027998,4.09011802 C2.72018729,3.86862694 2.70000076,3.65414508 2.70000076,3.44751353 C2.70000076,3.05724064 2.76027998,2.68322913 2.88139915,2.32688083 C3.00195759,1.9708129 3.1830756,1.65623949 3.42447284,1.38344099 C3.66587008,1.11064249 3.97006985,0.894478411 4.33791326,0.736911341 C4.70575666,0.578783535 5.13696334,0.5 5.63069218,0.5 C6.06189886,0.5 6.43534964,0.552709269 6.75188562,0.659529649 C7.0675805,0.764948187 7.33617347,0.906253886 7.55766455,1.08148417 C7.77887526,1.25671445 7.95410554,1.45493495 8.0833554,1.67614565 C8.21288562,1.89735636 8.30316426,2.1227726 8.35475206,2.35323546 C8.36652753,2.41631836 8.33764958,2.453327 8.26867894,2.46510248 L6.77767952,2.67201439 C6.73758683,2.67762176 6.70506409,2.67621992 6.68263461,2.6675285 C6.6596444,2.65883708 6.63665419,2.64033276 6.61366398,2.61145481 L6.61366398,2.61986586 C6.51581539,2.49930743 6.38964958,2.39921589 6.23432546,2.31846978 C6.07928171,2.2382844 5.8838649,2.19791134 5.6483554,2.19791134 C5.44144348,2.19791134 5.2617273,2.23099482 5.1097676,2.29660104 C4.95724716,2.36276799 4.83080099,2.45528958 4.73014872,2.57248359 C4.62977681,2.69079908 4.55323623,2.82509557 4.5019288,2.97789637 C4.45006064,3.12985607 4.42398637,3.28966609 4.42398637,3.45648532 C4.42398637,3.58293149 4.44473364,3.71919056 4.48454596,3.86554289 C4.52519938,4.01217559 4.59220744,4.14591134 4.68725235,4.26646978 C4.78229725,4.38702821 4.90706121,4.48655901 5.06210497,4.56337997 C5.21770946,4.64132239 5.40976185,4.68029361 5.63938361,4.68029361 C5.88638821,4.68029361 6.09105718,4.63739724 6.25198867,4.55104375 C6.41235943,4.46497064 6.54188965,4.35562694 6.63973824,4.2235734 L5.8376041,4.2235734 L5.8376041,3.11107139 L8.40662022,3.11107139 C8.46970312,3.11107139 8.50166513,3.14583708 8.50166513,3.21508808"/>
  </g>
</svg>
