<?xml version="1.0" encoding="utf-8"?>
<!-- Generator: Adobe Illustrator 21.0.2, SVG Export Plug-In . SVG Version: 6.00 Build 0)  -->
<svg version="1.1" id="Layer_1" xmlns="http://www.w3.org/2000/svg" xmlns:xlink="http://www.w3.org/1999/xlink" x="0px" y="0px"
	 viewBox="0 0 35.4 34.2" style="enable-background:new 0 0 35.4 34.2;" xml:space="preserve">
<style type="text/css">
	.st0{enable-background:new    ;}
	.st1{fill:none;stroke:#EF1616;stroke-width:5;stroke-miterlimit:10;}
	.st2{fill:#EF1616;}
	.st3{clip-path:url(#SVGID_2_);}
	.st4{clip-path:url(#SVGID_4_);fill:#979797;}
	.st5{clip-path:url(#SVGID_6_);}
	.st6{clip-path:url(#SVGID_8_);enable-background:new    ;}
	.st7{clip-path:url(#SVGID_10_);}
	.st8{clip-path:url(#SVGID_12_);}
	.st9{clip-path:url(#SVGID_14_);fill:#979797;}
	.st10{clip-path:url(#SVGID_16_);}
	.st11{clip-path:url(#SVGID_18_);fill:#979797;}
	.st12{clip-path:url(#SVGID_20_);}
	.st13{clip-path:url(#SVGID_22_);enable-background:new    ;}
	.st14{clip-path:url(#SVGID_24_);}
	.st15{clip-path:url(#SVGID_26_);}
	.st16{clip-path:url(#SVGID_28_);fill:#979797;}
</style>
<g>
	<g>
		<defs>
			<path id="SVGID_1_" d="M29,16.9c0-4.6-2.8-8.7-7.1-10.4c-1.4-0.6-6.4-2.1-11,1.6L9.6,6.6c4.3-3.6,9.6-3.3,13.1-2
				c5,2,8.3,6.8,8.4,12.3L29,16.9z"/>
		</defs>
		<clipPath id="SVGID_2_">
			<use xlink:href="#SVGID_1_"  style="overflow:visible;"/>
		</clipPath>
		<g class="st3">
			<defs>
				<rect id="SVGID_3_" x="-959.8" y="-662.1" width="1367" height="885"/>
			</defs>
			<clipPath id="SVGID_4_">
				<use xlink:href="#SVGID_3_"  style="overflow:visible;"/>
			</clipPath>
			<rect x="4.6" y="-1.3" class="st4" width="31.4" height="23.2"/>
		</g>
	</g>
	<g>
		<defs>
			<rect id="SVGID_5_" x="26.8" y="15.4" width="6.4" height="6"/>
		</defs>
		<clipPath id="SVGID_6_">
			<use xlink:href="#SVGID_5_"  style="overflow:visible;"/>
		</clipPath>
		<g class="st5">
			<defs>
				<rect id="SVGID_7_" x="-959.8" y="-662.1" width="1367" height="885"/>
			</defs>
			<clipPath id="SVGID_8_">
				<use xlink:href="#SVGID_7_"  style="overflow:visible;"/>
			</clipPath>
			<g class="st6">
				<g>
					<defs>
						<rect id="SVGID_9_" x="26.2" y="14.7" width="7" height="7"/>
					</defs>
					<clipPath id="SVGID_10_">
						<use xlink:href="#SVGID_9_"  style="overflow:visible;"/>
					</clipPath>
					<g class="st7">
						<defs>
							<polygon id="SVGID_11_" points="33.2,16.4 29.1,21.5 26.8,15.4 							"/>
						</defs>
						<clipPath id="SVGID_12_">
							<use xlink:href="#SVGID_11_"  style="overflow:visible;"/>
						</clipPath>
						<g class="st8">
							<defs>
								<rect id="SVGID_13_" x="26.2" y="14.7" width="7" height="7"/>
							</defs>
							<clipPath id="SVGID_14_">
								<use xlink:href="#SVGID_13_"  style="overflow:visible;"/>
							</clipPath>
							<rect x="21.8" y="10.4" class="st9" width="16.4" height="16"/>
						</g>
					</g>
				</g>
			</g>
		</g>
	</g>
	<g>
		<defs>
			<path id="SVGID_15_" d="M17.7,30.5c-1.8,0-3.5-0.4-4.9-0.9c-5-2-8.3-6.8-8.4-12.3l2,0c0,4.6,2.8,8.7,7.1,10.4
				c1.4,0.6,6.4,2.1,11-1.6l1.3,1.6C23.2,29.7,20.3,30.5,17.7,30.5"/>
		</defs>
		<clipPath id="SVGID_16_">
			<use xlink:href="#SVGID_15_"  style="overflow:visible;"/>
		</clipPath>
		<g class="st10">
			<defs>
				<rect id="SVGID_17_" x="-959.8" y="-662.1" width="1367" height="885"/>
			</defs>
			<clipPath id="SVGID_18_">
				<use xlink:href="#SVGID_17_"  style="overflow:visible;"/>
			</clipPath>
			<rect x="-0.6" y="12.3" class="st11" width="31.4" height="23.2"/>
		</g>
	</g>
	<g>
		<defs>
			<rect id="SVGID_19_" x="2.2" y="12.7" width="6.4" height="6"/>
		</defs>
		<clipPath id="SVGID_20_">
			<use xlink:href="#SVGID_19_"  style="overflow:visible;"/>
		</clipPath>
		<g class="st12">
			<defs>
				<rect id="SVGID_21_" x="-959.8" y="-662.1" width="1367" height="885"/>
			</defs>
			<clipPath id="SVGID_22_">
				<use xlink:href="#SVGID_21_"  style="overflow:visible;"/>
			</clipPath>
			<g class="st13">
				<g>
					<defs>
						<rect id="SVGID_23_" x="2.2" y="12.7" width="7" height="7"/>
					</defs>
					<clipPath id="SVGID_24_">
						<use xlink:href="#SVGID_23_"  style="overflow:visible;"/>
					</clipPath>
					<g class="st14">
						<defs>
							<polygon id="SVGID_25_" points="2.2,17.7 6.3,12.7 8.6,18.7 							"/>
						</defs>
						<clipPath id="SVGID_26_">
							<use xlink:href="#SVGID_25_"  style="overflow:visible;"/>
						</clipPath>
						<g class="st15">
							<defs>
								<rect id="SVGID_27_" x="2.2" y="11.7" width="7" height="8"/>
							</defs>
							<clipPath id="SVGID_28_">
								<use xlink:href="#SVGID_27_"  style="overflow:visible;"/>
							</clipPath>
							<rect x="-2.8" y="7.7" class="st16" width="16.4" height="16"/>
						</g>
					</g>
				</g>
			</g>
		</g>
	</g>
</g>
</svg>
