<?xml version="1.0" encoding="utf-8"?>
<!-- Generator: Adobe Illustrator 22.1.0, SVG Export Plug-In . SVG Version: 6.00 Build 0)  -->
<svg version="1.1" id="Capa_1" xmlns="http://www.w3.org/2000/svg" xmlns:xlink="http://www.w3.org/1999/xlink" x="0px" y="0px"
	 viewBox="0 0 24 20" style="enable-background:new 0 0 24 20;" xml:space="preserve">
<title>28_icon_envio_gratis</title>
<desc>Created with Sketch.</desc>
<path d="M23.8,11.2l-3-4.8C20.7,6.2,20.4,6,20,6H16l0-1c0-0.5-0.5-1-1-1h-1.5c0.6-0.9,0.9-2.2-0.1-3.2C12.9,0.2,12.2,0,11.5,0
	C10.7,0,9.8,0.6,9,1.5C8.5,2.2,8,2.9,7.5,3.8C7,2.9,6.5,2.2,6,1.5C5.2,0.6,4.3,0,3.5,0C2.8,0,2.1,0.2,1.6,0.8C0.6,1.8,1,3.1,1.5,4H1
	C0.4,4,0,4.4,0,5v5v6c0,0.6,0.5,1,1.1,1H3c0,1.7,1.3,3,3,3s3-1.3,3-3h7c0,1.7,1.3,3,3,3s3-1.3,3-3c0-0.4-0.1-0.7-0.2-1H23
	c0.6,0,1-0.4,1-1v-3.2C24,11.6,23.9,11.4,23.8,11.2z M14,9H9V6h2.4H14L14,9z M2,6h1.6h2.8H7v3H2V6z M10.5,2.8C11,2.2,11.4,2,11.6,2
	c0,0,0.2,0,0.3,0.2c0.2,0.3-0.2,0.9-0.3,1c-0.1,0.1-0.4,0.4-0.9,0.9h-1C10,3.5,10.2,3.1,10.5,2.8z M3.4,3.1c-0.1-0.1-0.6-0.7-0.3-1
	C3.2,2,3.3,2,3.4,2C3.6,2,4,2.2,4.5,2.8C4.8,3.1,5,3.5,5.3,4h-1C3.8,3.5,3.5,3.3,3.4,3.1z M2,15v-4h5v3.2C6.7,14.1,6.4,14,6,14
	c-0.9,0-1.7,0.4-2.2,1H2z M6,18c-0.6,0-1-0.4-1-1s0.4-1,1-1s1,0.4,1,1S6.6,18,6,18z M9,15v-4h5v4H9z M19,18c-0.6,0-1-0.4-1-1
	s0.4-1,1-1s1,0.4,1,1S19.6,18,19,18z M22,14h-1.5c-0.2,0-0.4,0.1-0.5,0.2c-0.3-0.1-0.6-0.2-1-0.2c-0.9,0-1.7,0.4-2.2,1H16V8h3.5
	l2.5,4V14z"/>
</svg>
