<svg xmlns="http://www.w3.org/2000/svg" viewBox="0 0 32 32" enable-background="new 0 0 32 32"><style type="text/css">.st0{fill:none;} .st1{fill:#333333;}</style><title>success</title><desc>Created with Sketch.</desc><g id="ui_x2F_icon_x2F_succes"><path id="Rectangle-4" class="st0" d="M0 .5h32v32h-32v-32z"/><path id="path-1_1_" class="st1" d="M16 29.7c-7.6 0-13.7-6.1-13.7-13.7s6.1-13.7 13.7-13.7 13.7 6.1 13.7 13.7-6.1 13.7-13.7 13.7zm0-2.3c6.3 0 11.4-5.1 11.4-11.4s-5.1-11.4-11.4-11.4-11.4 5.1-11.4 11.4 5.1 11.4 11.4 11.4zm-6.1-12.3l4.4 3.8 7.7-8.3c.4-.5 1.2-.5 1.6-.1s.5 1.2.1 1.6l-8.5 9.1c-.4.5-1.1.5-1.6.1l-5.3-4.6c-.5-.4-.5-1.1-.1-1.6.5-.3 1.2-.4 1.7 0z"/></g></svg>