<svg xmlns="http://www.w3.org/2000/svg" viewBox="0 0 146.3 149.8" enable-background="new 0 0 146.3 149.8"><style type="text/css">.st0{fill:#D4D4D4;} .st1{fill:#B10B16;}</style><path class="st0" d="M73.4 146.4c-38.8 0-70.4-31.6-70.4-70.4s31.5-70.4 70.4-70.4 70.4 31.6 70.4 70.4c0 16.9-6.1 33.3-17.2 46.1l10.6 22.1-25-9.4c-11.5 7.6-25 11.6-38.8 11.6zm0-138.8c-37.8 0-68.5 30.7-68.5 68.4s30.7 68.4 68.4 68.4c13.7 0 26.9-4 38.1-11.6l.4-.3 21.3 8-9-18.8.4-.5c11-12.5 17.1-28.6 17.1-45.2.2-37.7-30.5-68.4-68.2-68.4z"/><path class="st1" d="M107.8 59.7l-33.5 11.6 4.8 13.8 10.1-3.5c-1.3 4.2-4.5 8-10.5 10.1-11.7 4.1-18.3-3.5-20.6-10.1-2.9-8.3-.3-17.4 10-21 6.3-2.2 11.3-1 14.8 1.7l20.3-10.4c-6.4-11.1-20.6-20.2-42.8-12.5-24.5 8.6-30.6 30-23.9 49.5 5.4 15.6 21 33.4 48.9 23.7 20.3-7 26.6-22 26.1-36.4-.2-5.5-1.7-10.5-3.7-16.5z"/></svg>