<?xml version="1.0" encoding="utf-8"?>
<!-- Generator: Adobe Illustrator 22.0.1, SVG Export Plug-In . SVG Version: 6.00 Build 0)  -->
<svg version="1.1" id="Capa_1" xmlns="http://www.w3.org/2000/svg" xmlns:xlink="http://www.w3.org/1999/xlink" x="0px" y="0px"
	 viewBox="0 0 24 24" style="enable-background:new 0 0 24 24;" xml:space="preserve">
<style type="text/css">
	.st0{fill:#C4C4C4;}
	.st1{filter:url(#Adobe_OpacityMaskFilter);}
	.st2{fill:#FFFFFF;}
	.st3{mask:url(#mask-2_1_);fill:#FFFFFF;}
	.st4{fill:#34659E;}
</style>
<title>star</title>
<desc>Created with Sketch.</desc>
<g id="Page-1_2_">
	<g id="Icon" transform="translate(3.000000, 2.000000)">
		<g id="_xD83D__xDCF1_-icon">
			<g id="Page-1">
				<path id="path-1_1_" class="st0" d="M6.3,7l1.9-6.4c0.2-0.8,1.4-0.8,1.6,0L11.7,7h6c0.8,0,1.1,1,0.5,1.5l-4.9,4l1.9,6.5
					c0.2,0.8-0.7,1.4-1.3,0.9L9,15.9l-4.8,3.9c-0.6,0.5-1.5-0.1-1.3-0.9l1.9-6.5l-4.9-4C-0.8,8-0.5,7,0.3,7H6.3z"/>
			</g>
			<defs>
				<filter id="Adobe_OpacityMaskFilter" filterUnits="userSpaceOnUse" x="2.7" y="3.8" width="12.6" height="13.1">
					<feColorMatrix  type="matrix" values="1 0 0 0 0  0 1 0 0 0  0 0 1 0 0  0 0 0 1 0"/>
				</filter>
			</defs>
			<mask maskUnits="userSpaceOnUse" x="2.7" y="3.8" width="12.6" height="13.1" id="mask-2_1_">
				<g class="st1">
					<path id="path-1_2_" class="st2" d="M6.3,7l1.9-6.4c0.2-0.8,1.4-0.8,1.6,0L11.7,7h6c0.8,0,1.1,1,0.5,1.5l-4.9,4l1.9,6.5
						c0.2,0.8-0.7,1.4-1.3,0.9L9,15.9l-4.8,3.9c-0.6,0.5-1.5-0.1-1.3-0.9l1.9-6.5l-4.9-4C-0.8,8-0.5,7,0.3,7H6.3z"/>
				</g>
			</mask>
			<path id="Path" class="st3" d="M7.7,8.1C7.6,8.4,7.3,8.7,7,8.7H2.7l3.5,2.8c0.3,0.2,0.4,0.6,0.3,0.9l-1.3,4.5l3.3-2.7
				c0.3-0.2,0.7-0.2,1,0l3.3,2.7l-1.3-4.5c-0.1-0.3,0-0.7,0.3-0.9l3.5-2.8H11c-0.4,0-0.7-0.2-0.8-0.6L9,3.8L7.7,8.1z"/>
			<g id="Page-1_1_">
				<path id="path-3_1_" class="st4" d="M6.3,7l1.9-6.4C8.3,0.3,8.6,0.1,9,0l0,15.9l-4.8,3.9c-0.6,0.5-1.5-0.1-1.3-0.9l1.9-6.5
					l-4.9-4C-0.8,8-0.5,7,0.3,7H6.3z"/>
			</g>
		</g>
	</g>
</g>
</svg>
